<svg xmlns="http://www.w3.org/2000/svg" xmlns:xlink="http://www.w3.org/1999/xlink" width="40" zoomAndPan="magnify" viewBox="0 0 30 30.000001" height="40" preserveAspectRatio="xMidYMid meet" version="1.0"><defs><clipPath id="bc9e926211"><path d="M 9.195312 0 L 20.804688 0 L 20.804688 29.03125 L 9.195312 29.03125 Z M 9.195312 0 " clip-rule="nonzero"/></clipPath></defs><g clip-path="url(#bc9e926211)"><path fill="#ffffff" d="M 19.917969 9.796875 C 19.953125 9.457031 19.96875 9.058594 19.984375 8.679688 C 19.996094 8.304688 20.019531 7.847656 20.054688 7.488281 C 20.167969 6.464844 20.441406 3.476562 20.464844 2.992188 L 20.464844 2.761719 C 20.519531 2.210938 20.523438 1.664062 20.480469 1.117188 C 20.441406 0.84375 20.332031 0.605469 20.144531 0.40625 C 19.957031 0.203125 19.726562 0.0742188 19.460938 0.015625 C 19.203125 -0.0117188 18.960938 0.0351562 18.730469 0.15625 C 18.5 0.277344 18.328125 0.453125 18.207031 0.679688 C 17.691406 1.539062 17.554688 2.917969 17.484375 3.664062 C 17.457031 3.960938 17.347656 4.867188 17.261719 5.589844 L 17.230469 5.859375 C 17.183594 5.808594 17.136719 5.765625 17.085938 5.71875 C 16.769531 5.476562 16.410156 5.332031 16.015625 5.28125 C 15.636719 5.210938 15.277344 5.269531 14.9375 5.457031 C 14.730469 5.5625 14.5625 5.710938 14.433594 5.90625 C 13.980469 5.574219 13.480469 5.460938 12.933594 5.5625 C 12.636719 5.617188 12.363281 5.730469 12.121094 5.90625 C 12.117188 5.710938 12.101562 5.515625 12.066406 5.324219 C 12.042969 5.167969 12.019531 5.007812 12 4.847656 C 11.980469 4.691406 11.953125 4.507812 11.929688 4.359375 C 11.929688 4.296875 11.910156 4.238281 11.902344 4.175781 C 11.871094 3.679688 11.714844 3.222656 11.433594 2.8125 C 11.222656 2.613281 10.976562 2.519531 10.691406 2.53125 C 10.320312 2.507812 10.011719 2.640625 9.769531 2.917969 C 9.265625 3.527344 9.292969 4.046875 9.292969 4.910156 L 9.292969 5.078125 C 9.308594 5.757812 9.34375 6.371094 9.382812 7.03125 C 9.382812 7.308594 9.417969 7.589844 9.429688 7.878906 C 9.449219 8.507812 9.425781 9.132812 9.359375 9.761719 C 9.335938 10.074219 9.308594 10.398438 9.292969 10.714844 C 9.203125 11.667969 9.289062 12.609375 9.554688 13.535156 L 9.597656 13.65625 C 9.785156 14.261719 10.050781 14.828125 10.394531 15.359375 C 10.417969 15.640625 10.433594 15.859375 10.449219 16.039062 C 10.523438 16.832031 10.523438 17.628906 10.449219 18.421875 L 10.421875 19.039062 C 10.339844 21.179688 11.035156 22.851562 12.503906 23.992188 L 12.898438 24.296875 L 12.898438 23.796875 C 12.898438 23.601562 12.898438 23.457031 12.875 23.335938 C 12.839844 23.042969 12.851562 22.75 12.910156 22.460938 C 14.023438 23.820312 14.050781 24.902344 14.097656 26.765625 C 14.097656 27.308594 14.125 27.917969 14.167969 28.617188 L 14.195312 29.027344 L 14.535156 28.804688 C 15.40625 28.285156 16.113281 27.597656 16.660156 26.746094 C 17.207031 25.890625 17.53125 24.960938 17.640625 23.953125 C 17.753906 22.851562 17.660156 21.765625 17.371094 20.699219 C 17.742188 20.9375 18.144531 21.09375 18.578125 21.164062 L 19.132812 21.28125 L 18.832031 20.800781 C 17.921875 19.335938 17.910156 17.859375 17.90625 16.558594 L 17.90625 16.21875 C 18.300781 15.980469 18.671875 15.707031 19.011719 15.390625 C 19.808594 14.640625 20.351562 13.730469 20.632812 12.671875 C 20.738281 12.160156 20.726562 11.65625 20.601562 11.152344 C 20.476562 10.648438 20.246094 10.199219 19.917969 9.796875 Z M 17.738281 5.664062 C 17.828125 4.898438 17.933594 4.03125 17.960938 3.726562 C 18.03125 3.023438 18.160156 1.707031 18.621094 0.945312 C 18.691406 0.796875 18.796875 0.679688 18.941406 0.59375 C 19.082031 0.511719 19.238281 0.476562 19.402344 0.488281 C 19.570312 0.535156 19.710938 0.621094 19.824219 0.753906 C 19.9375 0.886719 20.003906 1.039062 20.023438 1.210938 C 20.050781 1.714844 20.042969 2.21875 19.996094 2.722656 L 19.996094 2.957031 C 19.972656 3.4375 19.703125 6.402344 19.589844 7.425781 C 19.546875 7.808594 19.53125 8.238281 19.515625 8.652344 C 19.515625 8.894531 19.492188 9.140625 19.480469 9.375 C 18.875 8.972656 18.214844 8.707031 17.503906 8.574219 C 17.535156 8.285156 17.5625 7.78125 17.59375 7.210938 C 17.59375 6.972656 17.617188 6.769531 17.625 6.71875 C 17.628906 6.582031 17.679688 6.152344 17.738281 5.664062 Z M 15.160156 5.90625 C 15.402344 5.769531 15.664062 5.730469 15.9375 5.785156 C 16.25 5.824219 16.527344 5.9375 16.777344 6.125 C 16.964844 6.292969 17.078125 6.5 17.117188 6.746094 C 17.117188 6.828125 17.117188 6.976562 17.089844 7.207031 C 17.070312 7.574219 17.035156 8.1875 17.007812 8.511719 C 16.710938 8.488281 16.457031 8.582031 16.242188 8.789062 C 15.84375 9.195312 15.839844 9.910156 15.964844 10.445312 C 16.015625 10.652344 16.101562 10.84375 16.21875 11.023438 C 15.796875 11.277344 15.359375 11.308594 14.90625 11.117188 C 14.789062 11.003906 14.710938 10.871094 14.671875 10.714844 L 14.671875 10.675781 C 14.785156 10.1875 14.839844 9.691406 14.839844 9.1875 L 14.839844 8.996094 C 14.839844 8.941406 14.839844 8.785156 14.859375 8.683594 C 14.890625 8.285156 14.890625 7.882812 14.859375 7.480469 C 14.828125 7.101562 14.773438 6.726562 14.6875 6.355469 L 14.773438 6.238281 C 14.867188 6.089844 14.996094 5.976562 15.160156 5.90625 Z M 14.347656 6.273438 C 14.269531 5.960938 14.386719 6.402344 14.347656 6.273438 Z M 13.035156 6.0625 C 13.414062 5.988281 14.078125 6.105469 14.230469 6.40625 C 14.316406 6.777344 14.375 7.15625 14.394531 7.542969 C 14.425781 7.917969 14.425781 8.292969 14.394531 8.667969 C 14.394531 8.773438 14.394531 8.882812 14.378906 8.988281 C 14.363281 9.09375 14.378906 9.113281 14.378906 9.183594 C 14.378906 9.660156 14.320312 10.136719 14.203125 10.601562 C 14.003906 11.175781 13.714844 11.230469 13.636719 11.230469 C 13.332031 11.304688 13.058594 11.246094 12.808594 11.058594 C 12.46875 10.792969 12.265625 10.222656 12.226562 9.5 L 12.226562 7.964844 C 12.226562 7.816406 12.199219 7.5 12.175781 7.222656 C 12.175781 7.019531 12.144531 6.835938 12.144531 6.738281 L 12.144531 6.699219 C 12.320312 6.320312 12.617188 6.109375 13.035156 6.0625 Z M 20.179688 12.589844 C 19.917969 13.546875 19.425781 14.367188 18.703125 15.046875 C 18.355469 15.375 17.972656 15.652344 17.558594 15.890625 C 17.179688 16.113281 16.769531 16.242188 16.328125 16.273438 L 16.347656 16.757812 C 16.730469 16.734375 17.09375 16.644531 17.441406 16.484375 L 17.441406 16.574219 C 17.441406 17.792969 17.441406 19.152344 18.160156 20.558594 C 17.585938 20.359375 17.324219 20.0625 16.980469 19.460938 C 16.765625 19.171875 16.539062 18.890625 16.296875 18.621094 C 16.355469 18.976562 16.433594 19.328125 16.535156 19.671875 C 17.21875 21.371094 18.308594 25.511719 14.628906 28.179688 C 14.605469 27.660156 14.59375 27.195312 14.582031 26.769531 C 14.53125 24.695312 14.5 23.449219 12.945312 21.785156 L 12.625 21.441406 L 12.53125 21.890625 C 12.410156 22.335938 12.359375 22.789062 12.378906 23.25 C 11.316406 22.230469 10.835938 20.847656 10.914062 19.054688 L 10.941406 18.433594 C 11.015625 17.625 11.015625 16.816406 10.941406 16.003906 L 10.941406 15.945312 C 11.101562 16.085938 11.269531 16.214844 11.441406 16.335938 C 11.59375 16.4375 11.753906 16.519531 11.921875 16.582031 C 12.003906 16.617188 12.082031 16.652344 12.167969 16.695312 L 12.386719 16.265625 C 12.285156 16.214844 12.199219 16.179688 12.109375 16.140625 C 11.972656 16.089844 11.839844 16.023438 11.71875 15.941406 C 11.519531 15.804688 11.332031 15.65625 11.152344 15.496094 C 11.046875 15.398438 10.949219 15.292969 10.863281 15.179688 C 10.507812 14.664062 10.242188 14.101562 10.066406 13.496094 L 10.027344 13.375 C 9.785156 12.507812 9.707031 11.628906 9.792969 10.738281 C 9.792969 10.433594 9.832031 10.128906 9.855469 9.800781 C 9.921875 9.152344 9.945312 8.503906 9.925781 7.855469 C 9.925781 7.566406 9.898438 7.28125 9.878906 7.003906 C 9.84375 6.351562 9.804688 5.734375 9.789062 5.066406 L 9.789062 4.902344 C 9.765625 4.074219 9.753906 3.695312 10.128906 3.230469 C 10.25 3.09375 10.402344 3.019531 10.585938 3.015625 C 10.746094 3 10.894531 3.03125 11.035156 3.105469 C 11.269531 3.460938 11.394531 3.847656 11.410156 4.273438 C 11.410156 4.335938 11.410156 4.398438 11.4375 4.464844 L 11.511719 4.953125 C 11.535156 5.113281 11.554688 5.292969 11.578125 5.433594 C 11.617188 5.671875 11.632812 5.910156 11.617188 6.152344 C 11.605469 6.328125 11.605469 6.503906 11.617188 6.679688 L 11.617188 6.78125 C 11.617188 6.882812 11.636719 7.070312 11.648438 7.273438 C 11.671875 7.550781 11.695312 7.863281 11.699219 8.003906 L 11.699219 9.546875 C 11.726562 10.050781 11.859375 10.96875 12.464844 11.453125 C 12.824219 11.730469 13.226562 11.820312 13.671875 11.722656 C 13.992188 11.675781 14.234375 11.511719 14.394531 11.230469 C 14.449219 11.3125 14.511719 11.386719 14.585938 11.453125 C 14.855469 11.625 15.148438 11.703125 15.46875 11.6875 C 15.851562 11.695312 16.199219 11.585938 16.511719 11.363281 C 16.597656 11.449219 16.6875 11.53125 16.785156 11.609375 C 16.582031 11.738281 16.398438 11.890625 16.238281 12.070312 L 16.148438 12.167969 C 15.886719 12.402344 15.695312 12.683594 15.570312 13.011719 L 16.035156 13.140625 C 16.144531 12.890625 16.300781 12.675781 16.503906 12.496094 L 16.59375 12.398438 C 16.773438 12.183594 16.996094 12.023438 17.257812 11.921875 C 17.636719 12.144531 18.042969 12.28125 18.480469 12.328125 L 18.519531 11.851562 C 17.8125 11.765625 17.222656 11.453125 16.753906 10.914062 C 16.601562 10.738281 16.496094 10.539062 16.4375 10.316406 C 16.292969 9.886719 16.34375 9.488281 16.589844 9.109375 C 16.761719 8.960938 16.953125 8.921875 17.167969 8.996094 L 17.203125 8.996094 C 18.039062 9.199219 18.90625 9.410156 19.488281 10.019531 L 19.527344 10.0625 C 19.828125 10.410156 20.035156 10.808594 20.148438 11.25 C 20.261719 11.695312 20.273438 12.140625 20.179688 12.589844 Z M 20.179688 12.589844 " fill-opacity="1" fill-rule="nonzero"/></g></svg>